<?xml version="1.0" encoding="UTF-8"?>
<svg width="375px" height="667px" viewBox="0 0 375 667" version="1.1" xmlns="http://www.w3.org/2000/svg" xmlns:xlink="http://www.w3.org/1999/xlink">
    <!-- Generator: sketchtool 62 (101010) - https://sketch.com -->
    <title>9706F0E8-5605-4C98-97CB-07DAC9D9717F@3x</title>
    <desc>Created with sketchtool.</desc>
    <g id="최종정리" stroke="none" stroke-width="1" fill="none" fill-rule="evenodd">
        <g id="정리_생체인증">
            <g id="back_img">
                <rect id="배경" fill="#FFFFFF" x="0" y="0" width="375" height="667"></rect>
                <g id="img_" transform="translate(147.000000, 472.000000)" fill-rule="nonzero">
                    <g id="woman-check-phone" transform="translate(129.000000, 0.000000)">
                        <g id="woman_check_phone">
                            <path d="M15,107.463198 C15,107.463198 11.737013,111.682081 10.7142857,123.054721 C9.69155844,134.42736 11.9805195,156.026204 13.0519481,160.199229 C14.1233766,164.372254 18.4090909,203.396917 19.4805195,206.240077 C20.5519481,209.083237 22.012987,224.628902 22.012987,224.628902 L28.9285714,224.812331 C28.9285714,224.812331 30.974026,204.543353 30.974026,199.178035 C30.974026,193.812717 33.8474026,143.048555 33.6525974,139.334104 C33.4577922,135.619653 34.3831169,136.811946 34.3831169,136.811946 C34.3831169,136.811946 40.4220779,154.971484 42.224026,157.998073 C44.025974,161.024663 47.2402597,166.94027 47.2402597,166.94027 C47.2402597,166.94027 47.9707792,185.971098 48.8474026,196.976879 C49.724026,207.982659 50.6493506,225.316763 50.6493506,225.316763 L59.9512987,225.133333 C59.9512987,225.133333 62.0941558,196.151445 62.0941558,190.052408 C62.0941558,183.953372 64.0422078,169.324855 64.0422078,167.628131 C64.0422078,165.931407 58.0032468,136.307514 58.0032468,136.307514 L53.7662338,107.417341 L15,107.463198 Z" id="Path" fill="#B1B1B1"></path>
                            <path d="M21.4891806,28.459565 L21.8062643,33.8049765 L21.4891806,37.6186595 L20.7467532,81.2786127 L36.6233766,78.0685934 L50.5032468,64.2196532 L59.1720779,68.0716763 C59.1720779,68.0716763 59.8538961,85.8184971 59.9512987,86.7815029 C60.0487013,87.7445087 61.5097403,114.571098 61.5097403,116.31368 C61.5584416,118.193834 60.9149304,127.130398 62.3272681,126.21325 C66.5155798,123.461805 67.012987,120.665528 67.012987,116.634682 C67.012987,114.211276 63.9448052,90.9545279 63.7987013,88.0196532 C63.6525974,85.0847784 68.6201299,77.6100193 60,67.7506744 C53.7175325,60.5510597 52.5309667,41.5175668 47.2712265,20.5148693 C42.0114862,-0.487828145 40.6168831,6.89788054 37.8896104,6.89788054 C35.4058442,6.89788054 31.9967532,9.69518304 25.9577922,11.8046243 C22.7922078,12.9052023 21.4891806,28.459565 21.4891806,28.459565 Z" id="Path" fill="#B7B7B7"></path>
                            <path d="M20.9902597,50.7071193 C17.7457214,50.7071193 15.5209659,55.1358181 13.158846,58.8032415 C10.7967262,62.4706649 9.98376623,66.4666667 9.98376623,66.4666667 C9.98376623,66.4666667 6.18506494,74.9044316 3.55519481,81.1410405 C2.14285714,84.488632 -2.48376623,98.2 3.06818182,98.7044316 C8.32792208,99.1630058 19.9675325,87.5152216 21.7694805,85.3140655 L23.7662338,81.095183 C23.9123377,80.544894 20.6493506,74.8585742 20.7467532,74.3541426 C20.8441558,73.5287091 28.4415584,69.355684 29.6103896,71.8319846 C30,72.6574181 31.0227273,75.0420039 31.3149351,75.7757225 C32.0454545,77.5641618 20.9902597,81.0493256 20.9902597,82.6543353 C20.9902597,84.6262042 20.0649351,91.9175337 18.5551948,95.4944123 C17.0454545,99.0712909 14.7564935,107.554913 14.7564935,107.554913 L53.6201299,107.646628 C53.6201299,107.646628 51.8935721,99.8707407 51.8935721,95.9666667 C51.8935721,95.9666667 54.4967532,68.2092486 55.4707792,66.4666667 C56.4448052,64.7240848 58.1006494,88.3865125 57.8571429,93.2473988 C57.6623377,96.6408478 60.9253247,117.001541 61.8506494,117.73526 C63.3603896,118.835838 66.9155844,116.634682 66.9155844,116.634682 C66.9155844,116.634682 66.7694805,94.3021195 66.6233766,90.5876686 C66.4772727,86.8732177 66.7207792,56.8366089 61.5097403,51.4254335 C56.2987013,46.0142582 54.8863636,46.1518304 50.5519481,47.5734104 C46.2175325,48.9949904 40.7334462,53.3973025 37.5,54.1659124 C33.9399138,55.0121667 29.8558382,50.4729124 26.4954485,49.0971898 C27.4207732,45.933028 25.7075742,50.5646272 25.9510807,49.0971898" id="Path" fill="#BFBFBF"></path>
                            <path d="M20.9267671,11.9436909 C18.7352087,19.0515907 19.4996843,26.6712909 19.450983,28.2304432 C19.3535804,29.8813102 20.2789051,41.0705202 19.3048791,44.1888247 C18.4282558,46.9402697 15.9444895,52.0304432 14.4347493,55.5614644 C13.8503337,56.9371869 13.412022,58.4046243 13.1198142,59.8720617 L13,61.1005511 C13,61.6767608 13.0735101,62.8672208 13.2205303,64.6719312 C14.4237796,62.1307688 15.2311775,60.3823294 15.6427241,59.4266129 C16.260044,57.9930381 19.8892947,52.5908486 23.6944895,51.5239656 C27.4996843,50.4570826 31.5289051,49.0038536 31.9185155,48.5911368 C32.3081259,48.17842 32.162022,46.8485549 32.2107233,45.5645472 C32.4542298,38.9152216 28.8503337,34.3014831 27.1944895,31.0914639 C25.5386454,27.8814446 24.0289051,20.1136802 26.6587752,16.4909441 C27.8412705,14.8620164 29.6046945,13.3814292 31.2096932,12.1659073 C31.5565251,11.9032393 29.8360008,16.482809 30.160576,16.2460744 C31.6744536,15.1419009 34.9250427,9.5027644 35.0353986,9.10789981 C35.2789051,8.23660886 35.425009,12.5930636 38.3470869,14.1522158 C41.2691649,15.711368 45.3600739,19.8843931 45.3600739,20.8015414 C45.3600739,21.7186898 46.3340999,24.699422 43.5581259,29.8813102 C40.7821519,35.0631985 38.5905934,41.6666667 42.437996,46.6192678 C46.2853986,51.571869 55.2566372,55.5614644 56.6587752,60.0096339 C58.0609132,64.4578035 56.6587752,68.4932563 56.4152687,72.3911368 C56.1717623,76.2890173 64.2561778,65.7418112 63.96397,60.6516378 C63.6717623,55.5614644 64.6457882,53.3603083 59.1425415,45.6104046 C53.6392947,37.860501 50.0353986,24.4701349 49.8892947,21.2142582 C49.7431908,17.9583815 48.0873467,8.97032755 44.7756584,6.35645472 C41.950983,4.15529865 41.3178662,2 35.425009,2 C34.2561778,2 33.0873467,2.09171484 31.9672168,2.18342967 C31.9672168,2.18342967 23.1183255,4.83579105 20.9267671,11.9436909 Z" id="Path" fill="#A0A0A0" transform="translate(38.485853, 37.618660) rotate(4.000000) translate(-38.485853, -37.618660) "></path>
                            <g id="Group" transform="translate(9.253247, 35.558767)">
                                <g transform="translate(0.000000, 26.597303)" id="Path">
                                    <g opacity="0.07" fill="#000000">
                                        <g>
                                            <path d="M16.8019481,9.44662813 C15.6331169,9.90520231 14.512987,10.4096339 13.4415584,11.0057803 L12.2727273,11.5560694 C12.2727273,11.5560694 -0.0974025974,23.7082852 0.438311688,23.0662813 C2.82467532,20.2689788 10.2272727,5.41117534 12.711039,1.97186898 C15.3409091,-1.60500963 16.8019481,-0.183429672 19.6753247,9.30905588"></path>
                                        </g>
                                    </g>
                                    <g opacity="0.07" transform="translate(0.974026, 18.801541)" fill="#000000">
                                        <path d="M15.2435065,143.579576 C15.2922078,143.717148 15.2922078,143.854721 15.2922078,143.992293 C15.3409091,145.001156 15.2922078,147.523314 14.1233766,149.128324 C12.6623377,151.237765 16.1201299,155.869364 16.1201299,157.0158 C16.1201299,158.162235 14.512987,159.216956 13.3928571,158.895954 C12.2727273,158.574952 7.5974026,156.098651 9.44805195,150.779191 C10.1785714,148.623892 10.6168831,146.743738 11.0551948,145.551445 C11.2987013,144.955299 11.4935065,144.359152 11.6883117,143.763006 C11.737013,143.487861 11.737013,143.212717 11.737013,142.937572 C11.6883117,142.570713 11.6883117,142.157996 11.6396104,141.745279 C11.3961039,139.681696 2.14285714,75.343738 1.80194805,72.8674374 C1.50974026,70.6662813 0.146103896,57.0466281 0.292207792,49.0674374 C0.194805195,48.3795761 0.194805195,47.6917148 0.243506494,47.049711 C0.243506494,46.8662813 0.340909091,46.0867052 0.292207792,45.7657033 C0.340909091,45.0319846 0.38961039,44.2982659 0.487012987,43.5645472 C0.340909091,42.9684008 0.438311688,42.9684008 0.487012987,42.005395 C0.535714286,41.0423892 0.487012987,40.4921002 0.584415584,39.8959538 C1.50974026,34.4847784 3.6038961,28.3398844 4.62662338,26.5973025 L4.91883117,25.6342967 C4.91883117,25.6342967 7.25649351,17.4716763 8.03571429,15.9583815 C8.71753247,14.582659 10.6655844,7.38304432 10.4707792,5.86974952 C10.3733766,5.04431599 13.4902597,1.83429672 13.4902597,1.83429672 L14.1233766,1.32986513 C14.4155844,1.28400771 14.7564935,1.32986513 15.0487013,1.42157996 C15.7305195,1.69672447 18.3603896,-0.458574181 18.7987013,0.917148362 C19.064327,9.03922678 18.4415584,14.969392 16.1201299,18.91313 C13.7987013,22.8568679 10.4285714,35.9522158 10.525974,39.8959538 C10.7694805,49.6177264 13.3928571,59.5687861 13.4902597,62.732948 C13.7337662,73.1425819 13.5876623,75.2061657 13.0032468,79.2874759 C12.4188312,83.3687861 9.44805195,91.1186898 12.7597403,106.343353 C16.0714286,121.568015 15.5844156,122.943738 15.2435065,131.564933 C14.9025974,140.186127 15.2435065,143.579576 15.2435065,143.579576"></path>
                                    </g>
                                    <path d="M11.1038961,5.09017341 L11.2012987,5.04431599 C11.5909091,4.86088632 13.8798701,3.76030829 15.487013,3.16416185 C17.288961,2.47630058 19.4805195,8.25433526 20.0162338,9.40077071 C20.0649351,9.49248555 20.0649351,9.49248555 19.6753247,9.53834297 C18.3603896,9.67591522 17.0454545,9.90520231 15.7792208,10.2262042 C13.9285714,10.638921 11.8344156,12.0146435 11.737013,12.060501 C11.6396104,12.1063584 11.1038961,11.0057803 10.0324675,8.43776493 C9.78896104,7.8416185 9.25324675,6.28246628 9.74025974,5.91560694 L11.1038961,5.09017341 Z" fill="#1D79D3"></path>
                                </g>
                                <path d="M23.1357802,1.43837217 C23.9903875,1.61183243 25.4463955,2.48625961 27.5769671,2.05989265 C28.4096096,1.89326541 29.9292139,1.20663453 32.1357802,1.13686838e-13 C31.5820359,1.2197068 31.2131316,2.41808004 31.0290673,3.59511972 C30.8450031,4.7721594 30.8048189,5.59870205 30.908515,6.07474768 C28.6148912,5.48843881 27.0410588,4.94536111 26.1870179,4.44551459 C24.3623083,3.37756261 23.1357802,1.43837217 23.1357802,1.43837217 Z" id="Path" fill="#000000" opacity="0.07"></path>
                                <path d="M14.512987,45.1236994 C14.512987,45.1236994 21.8668831,40.583815 21.9642857,40.7672447 C22.1590909,41.1799615 22.7922078,42.8308285 22.7922078,42.8308285 C22.7922078,42.8308285 23.3766234,43.8855491 23.1818182,44.2065511 C22.987013,44.527553 16.0227273,47.3248555 16.0227273,47.3248555 C15.7305195,47.2789981 15.487013,47.1414258 15.3896104,46.9121387 C15.0487013,46.3618497 14.7564935,45.7657033 14.512987,45.1236994 Z" id="Path" fill="#1D79D3"></path>
                            </g>
                        </g>
                    </g>
                    <g id="man-with-a-hand-up" transform="translate(0.000000, 24.000000)">
                        <g id="man_hand_up">
                            <path d="M53.0189591,175.636296 C52.594052,179.117037 55.2851301,197.226296 55.2851301,200.66 C55.2851301,204.093704 61.7531599,241.017778 61.7531599,241.017778 L71.9981413,240.547407 C71.9981413,240.547407 69.9680297,186.21963 70.1568773,183.585556 C70.3457249,180.951481 81.5821561,149.38963 81.5821561,149.38963 C81.5821561,149.38963 82.3847584,157.715185 82.3847584,160.396296 C82.3847584,163.077407 85.5007435,239.888889 85.5007435,239.888889 L94.4237918,239.888889 L107.123792,126.717778 L106.887732,124.554074 L60.0063197,118.062932 C60.0535316,118.015926 53.4438662,172.202593 53.0189591,175.636296" id="Path" fill="#BABABA"></path>
                            <path d="M116.188476,103.011111 L106.934944,128.034815 L105.32974,140.264444 L113.119703,133.444074 C113.54461,133.067778 114.394424,131.139259 114.866543,130.151481 L119.54052,117.122222 L122.986989,96.3318519 C122.986989,96.3318519 117.746468,86.9244444 111.608922,75.8707407 L116.188476,103.011111 Z M111.608922,75.8707407 L111.231227,73.66 L110.286989,73.4718519 L111.608922,75.8707407 L111.608922,75.8707407 Z M80.2130112,12.7940741 C78.7494424,12.652963 77.2858736,12.652963 75.8223048,12.8881481 C75.3973978,12.9822222 74.0282528,15.7574074 73.0840149,17.732963 C71.8565056,20.272963 71.6204461,24.3181481 71.6204461,26.9051852 C71.6204461,30.1507407 74.8780669,33.8196296 78.93829,36.4066667 C80.732342,37.5355556 79.5992565,43.5092593 78.7022305,44.0737037 C77.8052045,44.6381481 60.5728625,57.3381481 60.5728625,57.3381481 L48.1561338,50.5648148 L14.3524164,21.6840741 L12.6527881,19.5674074 C12.6527881,19.5674074 8.87583643,3.52777778 7.45947955,2.86925926 C5.00446097,1.74037037 3.21040892,5.83259259 0.944237918,9.21925926 C-0.330483271,11.1477778 -0.330483271,16.8392593 1.1802974,18.5796296 L7.74275093,26.5288889 L43.9070632,56.1151852 L53.963197,59.3137037 L65.3884758,65.5225926 L110.239777,73.5188889 C102.260967,59.1255556 93.2907063,42.9918519 92.4881041,41.2985185 C91.7799257,39.9344444 91.63829,38.3822222 92.0159851,36.9240741 C92.5825279,34.9014815 93.3851301,32.9259259 94.3765799,31.0444444 C95.0847584,30.0566667 95.4624535,28.1751852 95.6513011,27.0933333 C95.8401487,26.0114815 95.8401487,26.3407407 94.8959108,27.2814815 C94.6126394,27.5166667 93.8100372,27.5637037 93.432342,25.9174074 C93.0546468,24.2711111 88.0973978,21.9192593 85.6895911,19.8496296 C85.6895911,19.8496296 83.1401487,19.1911111 80.5434944,18.2974074 L80.2130112,12.7940741 Z" id="Shape" fill="#C2C2C2"></path>
                            <path d="M64.3498141,45.3437037 C61.4698885,45.6259259 59.7702602,45.1085185 56.3710037,44.3559259 C53.6327138,43.6974074 48.5810409,42.6155556 46.8342007,41.91 C39.3275093,38.9466667 13.8330855,21.1666667 12.7944238,19.4733333 C12.227881,18.5325926 7.78996283,23.8948148 7.50647519,26.2937037 C7.45947955,26.9522222 15.1550186,35.2307407 18.3654275,38.8525926 C18.9319703,39.5111111 23.7475836,44.5440741 25.4944238,45.8611111 C29.3657993,48.7774074 38.7609665,54.7040741 41.3576208,56.3503704 C43.3405204,57.6203704 49.6669145,60.912963 56.8431227,63.0766667 C61.6587361,64.5348148 62.9334572,65.7107407 64.4442379,69.0033333 C66.0494424,72.5311111 59.0148699,113.218148 59.0148699,113.218148 C59.0148699,113.218148 58.8260223,120.65 60.2895911,121.402593 C61.5643123,122.061111 76.6249071,126.435556 80.260223,127.79963 C82.9040892,128.222963 85.5479554,128.458148 88.2390335,128.599259 L107.218216,125.965185 C107.218216,125.965185 106.934944,90.17 107.265428,84.1962963 C107.595911,78.3166667 106.84052,75.0711111 107.879182,76.6703704 C109.05948,78.4577778 114.016729,94.5444444 114.016729,97.2725926 C114.016729,100.000741 108.587361,123.754444 108.587361,123.754444 L115.857993,127.752593 C115.857993,127.752593 125.678067,101.647037 126.24461,98.1662963 C126.811152,94.6855556 126.952788,92.8981481 125.347584,89.4644444 C123.742379,86.0307407 114.772119,54.7981481 114.772119,54.7981481 C114.772119,54.7981481 113.875093,50.9881481 107.312639,49.0125926 C100.750186,47.037037 94.3765799,41.6277778 87.0115242,45.8611111 C79.4104089,50.1885185 76.2944238,45.72 76.2944238,45.72 C76.2944238,45.72 68.7877323,46.0962963 64.5858736,45.4377778" id="Path" fill="#D1D1D1"></path>
                            <path d="M93.7628253,5.26814815 C94.6126394,5.92666667 97.1620818,8.27851852 98.0591078,8.98407407 C99.0977695,9.7837037 99.6643123,10.9125926 100.561338,12.3707407 C101.033457,13.1233333 101.741636,15.24 102.072119,16.0866667 C103.960595,20.8844444 102.119331,22.9540741 100.655762,26.3877778 C98.6256506,31.0914815 94.0460967,31.797037 93.6684015,32.4555556 C90.0330855,31.2796296 89.6081784,31.702963 88.002974,32.2203704 C85.9728625,30.8562963 85.0758364,29.0218519 83.9899628,28.0811111 C84.6509294,27.1403704 82.6680297,18.4385185 81.204461,23.0011111 C80.5907063,20.9314815 78.7022305,16.6040741 77.8996283,16.0396296 C77.097026,15.4751852 76.1527881,14.7696296 76.2472119,14.4403704 C76.672119,12.5118519 73.46171,12.7940741 76.2944238,10.7714815 C78.5605948,9.12518519 79.4576208,5.31518519 82.4319703,5.03296296 C84.2732342,4.84481481 86.633829,4.65666667 88.5223048,4.37444444 C89.8442379,4.1862963 90.9301115,4.79777778 92.063197,4.93888889 C92.6769517,4.98592593 93.2434944,5.22111111 93.7628253,5.50333333" id="Path" fill="#B8B8B8"></path>
                            <g id="Group" opacity="0.07" transform="translate(60.903346, 143.462963)" fill="#000000">
                                <g id="Path">
                                    <path d="M22.2840149,0.282222222 C21.0092937,3.95111111 16.0992565,11.1477778 12.9360595,15.3811111 C9.77286245,19.6144444 -0.188847584,28.7396296 0.424907063,39.7933333 C1.03866171,50.847037 7.78996283,79.2574074 7.78996283,81.8444444 C7.78996283,84.4314815 5.28773234,96.472963 3.39925651,100.188889 C1.51078067,103.904815 1.84126394,107.761852 2.78550186,107.761852 C3.21040892,107.761852 4.76840149,108.326296 6.9401487,107.761852 C8.59256506,107.338519 10.7643123,109.078889 11.6613383,108.655556 C12.3223048,108.373333 12.4639405,106.256667 12.4639405,106.256667 C12.5111524,105.362963 12.4167286,104.469259 12.1334572,103.622593 C11.6613383,102.258519 11.330855,100.847407 11.0947955,99.4362963 C10.7171004,89.0411111 9.82007435,64.9581481 10.0089219,63.2648148 C10.3394052,60.1133333 7.83717472,44.2148148 10.1033457,36.4066667 C12.3695167,28.5985185 22.236803,0.282222222 22.2840149,0.282222222"></path>
                                </g>
                            </g>
                            <g id="Group" opacity="0.07" transform="translate(86.397770, 71.966667)" fill="#000000">
                                <g id="Path">
                                    <path d="M20.5843866,8.09037037 L20.4899628,44.9674074 C20.4899628,44.9674074 21.4342007,52.7755556 20.1122677,53.6222222 C18.7903346,54.4688889 13.5498141,55.1274074 11.9446097,55.1274074 C10.8587361,55.1274074 -3.77695167,56.8207407 1.41635688,54.2337037 C3.72973978,53.0577778 18.3654275,44.9203704 13.6914498,36.877037 C9.01747212,28.8337037 11.1892193,18.5796296 14.5884758,11.6181481 C17.9877323,4.65666667 20.6315985,0 20.6315985,0 L20.5843866,8.09037037 Z"></path>
                                </g>
                            </g>
                            <path d="M12.8416357,19.5203704 L7.97881041,23.0481481 C7.64832714,23.2833333 7.22342007,23.1892593 6.98736059,22.907037 C6.8929368,22.812963 6.84572491,22.6718519 6.84572491,22.5307407 L6.32639405,15.4751852 L7.60111524,13.2644444 C7.74275093,12.9822222 7.83717472,12.652963 7.78996283,12.3707407 L7.41226766,8.89 C7.41226766,8.74888889 7.36505576,8.65481481 7.31784387,8.5137037 L5.57100372,1.83444444 C5.52379182,1.45814815 5.8070632,1.12888889 6.18475836,1.08185185 L11.4724907,0.47037037 C11.8501859,0.423333333 12.227881,0.705555556 12.2750929,1.08185185 L12.2750929,1.12888889 L13.172119,18.9088889 C13.172119,19.1911111 13.0776952,19.3792593 12.8416357,19.5203704 Z" id="Path" fill="#1D79D3"></path>
                            <path d="M78.8438662,35.6540741 C78.8438662,35.6540741 82.2903346,34.9955556 83.9899628,33.6785185 C85.6895911,32.3614815 81.8654275,36.1714815 80.6379182,37.6766667 C79.4104089,39.1818519 78.8438662,35.6540741 78.8438662,35.6540741 Z" id="Path" fill="#000000" opacity="0.07"></path>
                            <path d="M101.127881,140.358519 C101.127881,140.358519 97.7286245,154.093333 94.6598513,158.138519 C91.4022305,162.465926 94.9903346,182.362593 91.9687732,191.111481 C89.0888476,199.39 93.0074349,217.358148 92.2992565,223.096667 C91.7327138,227.80037 91.63829,237.913333 89.1360595,243.557778 C88.2862454,245.486296 86.4921933,246.897407 86.4921933,247.791111 C86.4921933,252.824074 93.3379182,249.578519 93.3379182,249.578519 L93.7156134,245.11 L98.3895911,205.598889 L107.029368,127.188148 L101.127881,140.358519 Z" id="Path" fill="#000000" opacity="0.07"></path>
                        </g>
                    </g>
                </g>
            </g>
        </g>
    </g>
</svg>