<?xml version="1.0" encoding="UTF-8"?>
<svg width="176px" height="23px" viewBox="0 0 176 23" version="1.1" xmlns="http://www.w3.org/2000/svg" xmlns:xlink="http://www.w3.org/1999/xlink">
    <title>mlogo/hana</title>
    <g id="업체-로고들" stroke="none" stroke-width="1" fill="none" fill-rule="evenodd">
        <g id="메인화면로고" transform="translate(-1474.000000, -110.000000)" fill-rule="nonzero">
            <g id="mlogo/hana" transform="translate(1474.000000, 110.000000)">
                <g id="hana">
                    <path d="M15.9313049,13.8816342 C15.8267228,13.5751894 15.7221408,13.1665963 15.6175588,12.8601515 C15.1992307,11.9408171 14.5717385,11.1236309 13.6305003,10.6128896 C12.166352,9.79570347 10.3884576,9.79570347 9.02889127,10.6128896 C8.40139912,11.0214827 7.878489,11.532224 7.56474293,12.2472619 C7.46016091,12.4515584 7.35557888,12.7580032 7.25099686,12.9622998 C6.83266876,14.0859307 6.93725079,15.720303 7.56474293,16.7417856 C7.77390698,17.0482304 8.08765305,17.3546753 8.50598115,17.5589718 C8.92430924,17.6611201 9.34263734,17.6611201 9.76096543,17.4568235 C10.1792935,17.1503787 10.2838756,16.6396374 10.1792935,16.128896 C10.0747115,15.5160064 9.97012948,14.9031168 10.1792935,14.2902272 C10.2838756,14.0859307 10.3884576,13.8816342 10.4930396,13.7794859 C10.5976216,13.6773376 10.7022037,13.5751894 10.8067857,13.5751894 C11.0159497,13.4730411 11.3296958,13.3708928 11.6434419,13.4730411 C12.06177,13.5751894 12.4800981,13.8816342 12.6892621,14.2902272 C12.8984262,14.6988203 13.0030082,15.2095616 13.0030082,15.6181547 C13.1075902,17.6611201 12.5846801,19.7040854 12.06177,21.7470507 C11.9571879,21.9513473 11.9571879,22.1556438 11.8526059,22.3599404 C11.8526059,22.5642369 11.7480239,22.6663852 11.8526059,22.8706817 C11.8526059,22.97283 11.9571879,22.97283 12.06177,22.97283 C12.375516,23.0749782 12.5846801,22.8706817 12.7938441,22.6663852 C14.0488284,21.4406059 14.7809026,19.9083819 15.3038127,18.2740097 C15.5129768,17.6611201 15.7221408,17.0482304 15.8267228,16.4353408 C16.0358869,15.720303 16.0358869,14.8009686 15.9313049,13.8816342" id="Path" fill="#008077"></path>
                    <path d="M25,3.54391756 C25,3.21756702 24.6901433,3 24.3802866,3 C24.0704299,3 23.7605732,3.21756702 23.5540021,3.32635053 C18.2864382,5.50202077 12.2958755,5.8283713 6.71845492,4.95810321 C5.78888483,4.8493197 4.75602917,4.63175267 3.82645908,4.41418565 C3.20674569,4.30540214 2.5870323,4.19661863 1.96731891,4.08783512 C1.45089108,4.08783512 0.831177687,4.08783512 0.418035425,4.41418565 C-0.0983924018,4.95810321 -0.0983924018,5.8283713 0.211464295,6.48107237 C0.624606556,7.24255695 1.24431995,7.78647451 1.96731891,8.22160855 C2.5870323,8.6567426 3.41331682,9.09187665 4.23960135,8.98309314 C6.40859822,8.87430962 8.47430953,8.6567426 10.6433064,8.33039207 C14.2583012,7.78647451 18.0798671,7.35134046 21.4882908,5.8283713 C22.624432,5.39323725 23.6572876,4.74053618 24.6901433,3.9790516 C24.6901433,4.08783512 25,3.76148458 25,3.54391756" id="Path" fill="#008077"></path>
                    <path d="M9,2.04878049 C9,3.12195122 9.9,4 11,4 C12.1,4 13,3.12195122 13,2.04878049 C13,1.85365854 13,1.75609756 12.9,1.56097561 C12.7,1.17073171 12.5,1.07317073 12.6,0.585365854 C12.6,0 11.9,0 11.4,0 C11,0 10.5,0.0975609756 10.1,0.292682927 C9.8,0.487804878 9.5,0.682926829 9.3,0.975609756 C9.1,1.36585366 9,1.65853659 9,2.04878049 C9,2.04878049 9,2.04878049 9,2.04878049" id="Path" fill="#D01F37"></path>
                </g>
                <g id="text" transform="translate(26.000000, 5.000000)" fill="#231F20">
                    <path d="M3.15784091,1.6696242 L3.15784091,0 L5.56777212,0 L5.56777212,1.6696242 L8.78314454,1.6696242 L8.78314454,3.24794082 L7.09555345,3.24794082 C7.47270449,3.71752263 7.77314685,4.27189004 7.99688051,4.91756502 C8.22061418,5.56324001 8.33567721,6.26109075 8.34846199,7.02416118 C8.33567721,7.77418768 8.23339896,8.46551644 8.04162725,9.09814749 C7.84346314,9.73077853 7.56859035,10.272102 7.21700887,10.7286399 C6.859035,11.1982217 6.44352962,11.55693 5.95770794,11.8178088 C5.47188627,12.0786876 4.94131786,12.202605 4.35961032,12.202605 C3.75233322,12.2156489 3.20258764,12.0852095 2.71037357,11.8243308 C2.2181595,11.563452 1.79626173,11.1982217 1.45107264,10.7416838 C1.09309878,10.272102 0.824618374,9.72425656 0.632846659,9.09162552 C0.441074944,8.45899448 0.351581477,7.76766571 0.351581477,7.01763921 C0.351581477,6.25456878 0.460252116,5.55671804 0.683985783,4.91104305 C0.907719451,4.26536807 1.2081618,3.71100066 1.58531284,3.24141885 L0,3.24141885 L0,1.66310223 L3.15784091,1.66310223 L3.15784091,1.6696242 Z M4.36600271,3.28055067 C3.88657342,3.28055067 3.47746043,3.62621506 3.15144852,4.31102186 C2.8254366,4.99582866 2.66562684,5.90238242 2.67841162,7.02416118 C2.66562684,8.11333009 2.81904421,8.98727401 3.14505613,9.63947096 C3.46467565,10.2981899 3.86739625,10.6242884 4.34682554,10.6242884 C4.82625483,10.6242884 5.22897543,10.2981899 5.54859495,9.6525149 C5.86821448,9.00031795 6.02802424,8.12637403 6.02802424,7.02416118 C6.02802424,5.8436847 5.86821448,4.92408699 5.55498734,4.26536807 C5.2481526,3.61317112 4.845432,3.28055067 4.36600271,3.28055067 Z M12.6633256,6.41109604 L12.6633256,15.8940397 L10.3364954,15.8940397 L10.3364954,0 L12.6633256,0 L12.6633256,4.82625745 L14.9006623,4.82625745 L14.9006623,6.40457407 L12.6633256,6.40457407 L12.6633256,6.41109604 Z" id="Shape"></path>
                    <path d="M19.0941375,9.7478224 L23.1422943,9.7478224 C23.4006873,9.7478224 23.6590803,9.7478224 23.8975969,9.7478224 C24.1427389,9.7478224 24.3812555,9.73477311 24.6197721,9.71519916 C24.8582887,9.68910058 25.0901799,9.6499527 25.322071,9.58470623 C25.5539622,9.51945976 25.7991042,9.41506541 26.0641227,9.27804783 L26.0641227,0 L28.4757906,0 L28.4757906,4.82823867 L30.794702,4.82823867 L30.794702,6.40720321 L28.4757906,6.40720321 L28.4757906,15.8940397 L26.0641227,15.8940397 L26.0641227,10.8570124 C25.6334677,11.0462271 25.1564345,11.1701954 24.6263976,11.2354419 C24.0963607,11.3006884 23.5862002,11.3333116 23.0826651,11.3333116 L17.7491689,11.3333116 C17.2125065,11.3333116 16.7686006,11.1179982 16.4174512,10.6938962 C16.0663017,10.2632695 15.8940397,9.75434705 15.8940397,9.15407954 L15.8940397,0.698137213 L18.2990822,0.698137213 L18.2990822,9.09535771 C18.2990822,9.30414641 18.3653368,9.46726258 18.497846,9.57818158 C18.6303552,9.69562522 18.829119,9.7478224 19.0941375,9.7478224 Z" id="Path"></path>
                    <path d="M31.7880795,7.44700108 C31.7880795,6.52790918 31.9336939,5.66875805 32.2315417,4.88286787 C32.5293895,4.09697769 32.9463764,3.4109888 33.4758835,2.83822138 C34.0120095,2.26545396 34.6407993,1.8125681 35.3622528,1.48622387 C36.0837063,1.15987964 36.877967,0.993377483 37.7317973,0.993377483 C38.5723899,0.993377483 39.3600318,1.15987964 40.0947229,1.48622387 C40.8227953,1.8125681 41.4582039,2.26545396 41.9943299,2.83822138 C42.5304559,3.4109888 42.9474427,4.0903176 43.2519094,4.88286787 C43.556376,5.66875805 43.7086093,6.52790918 43.7086093,7.44700108 C43.7086093,8.37941316 43.556376,9.23856429 43.2519094,10.0311146 C42.9474427,10.8170047 42.5304559,11.5029936 41.9943299,12.075761 C41.4582039,12.6485285 40.8294141,13.0947542 40.0947229,13.4210985 C39.3666506,13.7407826 38.5790087,13.9072848 37.7317973,13.9072848 C36.877967,13.9072848 36.0837063,13.7474427 35.3622528,13.4210985 C34.6341804,13.1014143 34.0053907,12.6485285 33.4758835,12.075761 C32.9397575,11.5029936 32.5227706,10.8236648 32.2315417,10.0311146 C31.9403128,9.23856429 31.7880795,8.37941316 31.7880795,7.44700108 Z M34.3032385,7.44700108 C34.3032385,8.15297023 34.3959022,8.7989986 34.5812297,9.38508619 C34.7665572,9.97117378 35.0114543,10.4706803 35.3225397,10.8902657 C35.640244,11.3231713 36.010899,11.6495155 36.4278859,11.8759585 C36.8448728,12.1024014 37.2817162,12.2156229 37.745035,12.2156229 C38.2083537,12.2156229 38.6451971,12.1024014 39.062184,11.8759585 C39.4791709,11.6495155 39.843207,11.3231713 40.1675302,10.8902657 C40.4786156,10.4706803 40.7235127,9.97117378 40.915459,9.38508619 C41.1074054,8.7989986 41.2000691,8.15297023 41.2000691,7.44700108 C41.2000691,6.75435211 41.1074054,6.11498383 40.915459,5.52889624 C40.7235127,4.94280864 40.4786156,4.44330217 40.1675302,4.02371674 C39.8498259,3.59081113 39.4791709,3.2644669 39.062184,3.03136388 C38.6451971,2.79826086 38.2083537,2.67837931 37.745035,2.67837931 C37.2817162,2.67837931 36.8448728,2.79826086 36.4278859,3.03136388 C36.010899,3.2644669 35.6468629,3.59747122 35.3225397,4.02371674 C35.0114543,4.44330217 34.7665572,4.94280864 34.5812297,5.52889624 C34.3959022,6.11498383 34.3032385,6.75435211 34.3032385,7.44700108 Z" id="Shape"></path>
                    <path d="M47.8621689,4.1562156 L47.8621689,4.9953083 C48.1601821,4.67049822 48.5140728,4.41335691 48.9238411,4.23741812 C49.3274007,4.06147933 49.7495861,3.97350993 50.1841887,3.97350993 C51.2520695,3.97350993 52.0964404,4.31185376 52.7173013,4.9953083 C53.3381623,5.67876283 53.6423841,6.60582493 53.6423841,7.78326145 L53.6423841,13.9072848 L51.450745,13.9072848 L51.450745,8.12837216 C51.450745,7.39078261 51.2955298,6.7885306 50.9913079,6.32161611 C50.6870861,5.8614685 50.2524834,5.6313947 49.6937086,5.6313947 C49.178394,5.6313947 48.75,5.8614685 48.3961093,6.31484923 C48.0422185,6.76822997 47.8683775,7.39754949 47.8683775,8.2028078 L47.8683775,13.9072848 L45.6953642,13.9072848 L45.6953642,4.16298248 L47.8621689,4.16298248 L47.8621689,4.1562156 Z" id="Path"></path>
                    <path d="M64.521617,9.29588695 L57.9635001,9.29588695 C57.9771914,10.2394294 58.2304798,10.983632 58.7370567,11.5218499 C59.2436336,12.0667124 59.8802775,12.3391437 60.6538341,12.3391437 C61.2083304,12.3391437 61.7217529,12.2527631 62.2009472,12.0866464 C62.6801416,11.9205298 63.1593359,11.6480985 63.6385303,11.2627079 L64.0287314,12.9238743 C63.4742351,13.2959755 62.8923562,13.5484728 62.2762492,13.6946555 C61.6601422,13.8408381 61.0508808,13.9072848 60.4347738,13.9072848 C59.6954454,13.9072848 59.0314189,13.7876808 58.4358488,13.5484728 C57.8402787,13.3092649 57.3337018,12.9703869 56.9161182,12.5251944 C56.4985345,12.0866464 56.1767898,11.5484285 55.9577295,10.92383 C55.7386692,10.2992314 55.6291391,9.60154156 55.6291391,8.83740504 C55.6291391,8.05997918 55.7455148,7.37557864 55.9782664,6.77091408 C56.2110179,6.16624953 56.5327627,5.66125496 56.9366551,5.24264103 C57.3405474,4.83731644 57.8197418,4.52501717 58.3673925,4.30574321 C58.9150432,4.08646925 59.5106133,3.97350993 60.1472572,3.97350993 C60.8318205,3.97350993 61.4547732,4.08646925 62.0024239,4.31238787 C62.5500745,4.5383065 63.0155776,4.85725044 63.3920875,5.26257503 C63.7754429,5.66789962 64.0629595,6.14631553 64.2683285,6.70446743 C64.4736976,7.25597466 64.5695364,7.86063922 64.5695364,8.50517176 C64.5695364,8.62477574 64.5626908,8.75766905 64.5489995,8.91049636 C64.5284626,9.06332366 64.521617,9.18957231 64.521617,9.29588695 Z M58.0182652,7.90050721 L62.242021,7.90050721 C62.242021,7.19617267 62.036652,6.61144211 61.625914,6.13967087 C61.215176,5.66789962 60.7154448,5.43533633 60.1267203,5.43533633 C59.5379958,5.43533633 59.0451102,5.67454429 58.6412178,6.1529602 C58.2373254,6.63137611 58.0251108,7.209462 58.0182652,7.90050721 Z" id="Shape"></path>
                    <path d="M73.0086499,1.86629898 L72.4137931,3.58548787 C71.9927147,3.23898468 71.5515849,2.99909786 71.08372,2.85916388 C70.6158551,2.7192299 70.214828,2.65259467 69.8806387,2.65259467 C69.3994063,2.65259467 69.0251143,2.77253808 68.7577629,3.01908843 C68.4904116,3.26563878 68.3500521,3.57216083 68.3500521,3.94531811 C68.3500521,4.21852254 68.4168899,4.47173641 68.5572494,4.69163267 C68.6976089,4.91152892 68.8780711,5.13142517 69.1053197,5.3446579 C69.345936,5.55789064 69.6132874,5.77778689 69.9140577,5.99101962 C70.214828,6.20425235 70.5289659,6.43081213 70.8497875,6.65737191 C71.7119957,7.30373362 72.3736904,7.89678716 72.8281877,8.44319603 C73.2826851,8.9896049 73.5099338,9.65595719 73.5099338,10.4422529 C73.5099338,10.8820454 73.4163608,11.3151744 73.2292148,11.7283128 C73.0420689,12.1414512 72.7680337,12.507945 72.4071093,12.8344576 C72.046185,13.1543067 71.6050552,13.4208476 71.08372,13.6140898 C70.5623848,13.8139954 69.9675279,13.9072848 69.2924657,13.9072848 C68.7176602,13.9072848 68.0893845,13.8406495 67.4009547,13.7007156 C66.7192086,13.5607816 66.1043005,13.3208948 65.5629139,12.9743916 L66.1043005,11.1419228 C66.5253789,11.4617719 67.0132952,11.7283128 67.5680493,11.934882 C68.1228034,12.1414512 68.6775575,12.2414041 69.2122603,12.2414041 C69.6934928,12.2414041 70.1145712,12.0948066 70.4821794,11.8016115 C70.8497875,11.5084165 71.0302497,11.0819511 71.0302497,10.5222152 C71.0302497,10.2356837 70.9634118,9.96914276 70.8297362,9.72259242 C70.6960605,9.47604207 70.5289659,9.2494823 70.3284523,9.02958604 C70.121255,8.81635331 69.8940063,8.61644762 69.6467063,8.42986898 C69.3927225,8.24329035 69.1454224,8.05671171 68.8914386,7.86346954 C68.5572494,7.63690977 68.2096926,7.39702294 67.8487682,7.15713612 C67.4878439,6.91058577 67.1603384,6.63738134 66.8595681,6.33752281 C66.5721654,6.03766428 66.3315491,5.69782462 66.1377194,5.31800381 C65.9438896,4.93818301 65.8570004,4.48506346 65.870368,3.9719722 C65.8837356,3.07239661 66.2246086,2.35273614 66.9063546,1.81299079 C67.5814169,1.26658192 68.5104629,0.993377483 69.686809,0.993377483 C70.2616145,0.993377483 70.8564713,1.07333976 71.4713795,1.23326431 C72.0862877,1.39318885 72.6009391,1.60642159 73.0086499,1.86629898 Z" id="Path"></path>
                    <path d="M74.5033113,1.32832463 C74.5033113,0.965465221 74.6424329,0.654442868 74.9279984,0.395257574 C75.213564,0.136072279 75.5650292,0 75.9823942,0 C76.392437,0 76.7439022,0.129592647 77.03679,0.395257574 C77.3296777,0.6609225 77.4834437,0.965465221 77.4834437,1.32832463 C77.4834437,1.69766368 77.3369999,2.00868603 77.03679,2.26139169 C76.73658,2.51409735 76.392437,2.63721037 75.9823942,2.63721037 C75.5650292,2.63721037 75.213564,2.51409735 74.9279984,2.26139169 C74.6497551,2.01516566 74.5033113,1.70414331 74.5033113,1.32832463 Z M74.7010105,3.58323669 L77.2857445,3.58323669 L77.2857445,12.9139073 L74.7010105,12.9139073 L74.7010105,3.58323669 Z" id="Shape"></path>
                    <path d="M88.410596,4.15367406 L88.410596,12.1581089 C88.410596,12.9752819 88.2682742,13.6830695 87.9836306,14.2814718 C87.698987,14.8734396 87.3237749,15.368891 86.8579945,15.7613914 C86.392214,16.141023 85.8617418,16.424138 85.2536395,16.6107366 C84.6520064,16.7973352 84.0309658,16.8874172 83.3905176,16.8874172 C82.6789086,16.8874172 82.0708063,16.8359418 81.5597416,16.7394253 C81.0486769,16.6429088 80.4793897,16.4498758 79.8518799,16.1603263 L80.1818077,14.3779883 C80.7769717,14.744751 81.3203822,15.0021283 81.8185085,15.1372514 C82.3166349,15.2788089 82.8471071,15.3431533 83.403456,15.3431533 C84.1021267,15.3431533 84.7166981,15.0857759 85.2471703,14.5838902 C85.7841117,14.0755699 86.0687553,13.3742167 86.1205087,12.4669617 C85.8552726,12.7758145 85.5188756,13.0138885 85.1177869,13.1747493 C84.7166981,13.3356101 84.2703252,13.4192578 83.7851372,13.4192578 C82.4589567,13.4192578 81.4109506,13.0010196 80.6346499,12.1645433 C79.8583491,11.328067 79.4701987,10.169869 79.4701987,8.68994942 C79.4701987,7.9885962 79.5737054,7.34515289 79.780719,6.76605391 C79.9877325,6.18695493 80.2853145,5.69150358 80.6669957,5.27326543 C81.0486769,4.85502727 81.5079882,4.53974005 82.0319913,4.31453489 C82.5559943,4.08932973 83.144689,3.97350993 83.7851372,3.97350993 C84.3091402,3.97350993 84.7684515,4.063592 85.1695403,4.24375613 C85.570629,4.42392025 85.8876185,4.62982211 86.1205087,4.86146171 L86.1205087,4.15367406 L88.410596,4.15367406 L88.410596,4.15367406 Z M86.1334471,8.70925271 C86.1334471,7.71835001 85.9199643,6.92691474 85.4994681,6.33494689 C85.0789718,5.74297904 84.5743763,5.45342955 83.9921507,5.45342955 C83.3646409,5.45342955 82.8471071,5.75584791 82.4395492,6.36068462 C82.0319913,6.96552134 81.8314469,7.75052218 81.8314469,8.70925271 C81.8314469,9.68085212 82.0319913,10.4722874 82.4395492,11.089993 C82.8471071,11.7076986 83.3646409,12.0165513 83.9921507,12.0165513 C84.5873147,12.0165513 85.0919102,11.7076986 85.5059373,11.089993 C85.9199643,10.4722874 86.1334471,9.68085212 86.1334471,8.70925271 Z" id="Shape"></path>
                    <path d="M92.5641556,4.1562156 L92.5641556,4.9953083 C92.8621689,4.67049822 93.2160596,4.41335691 93.6258278,4.23741812 C94.0293874,4.06147933 94.4515728,3.97350993 94.8861755,3.97350993 C95.9540563,3.97350993 96.7984272,4.31185376 97.4192881,4.9953083 C98.040149,5.67876283 98.3443709,6.60582493 98.3443709,7.78326145 L98.3443709,13.9072848 L96.1527318,13.9072848 L96.1527318,8.12837216 C96.1527318,7.39078261 95.9975166,6.7885306 95.6932947,6.32161611 C95.3890728,5.8614685 94.9544702,5.6313947 94.3956954,5.6313947 C93.8803808,5.6313947 93.4519868,5.8614685 93.098096,6.31484923 C92.7442053,6.76822997 92.5703642,7.39754949 92.5703642,8.2028078 L92.5703642,13.9072848 L90.397351,13.9072848 L90.397351,4.16298248 L92.5641556,4.16298248 L92.5641556,4.1562156 Z" id="Path"></path>
                    <path d="M109.53782,0.260985874 C110.0759,0.260985874 110.59453,0.365380224 111.100195,0.574168923 C111.605861,0.782957622 112.059662,1.08309138 112.455118,1.46804554 C112.837609,1.85299971 113.15527,2.32277428 113.395137,2.86431997 C113.641486,3.40586566 113.764661,4.01918246 113.764661,4.69774573 C113.764661,5.37630901 113.647969,5.98962581 113.408103,6.54422079 C113.168236,7.09229113 112.850574,7.5620657 112.455118,7.94701987 C112.059662,8.33197403 111.605861,8.63210779 111.100195,8.83437184 C110.59453,9.03663589 110.0759,9.14103024 109.53782,9.14103024 C108.993258,9.14103024 108.461661,9.03663589 107.949513,8.83437184 C107.437365,8.63210779 106.990046,8.33197403 106.607556,7.94701987 C106.2121,7.575115 105.894439,7.11186507 105.654572,6.55727009 C105.414705,6.00919975 105.298013,5.3893583 105.298013,4.69774573 C105.298013,4.06485499 105.414705,3.47763677 105.648089,2.92956644 C105.881473,2.38802075 106.192651,1.91824617 106.588107,1.53329201 C106.983563,1.13528855 107.437365,0.822105504 107.94303,0.593742864 C108.448695,0.365380224 108.980292,0.260985874 109.53782,0.260985874 Z M109.53782,1.84647506 C109.317402,1.84647506 109.096984,1.91172153 108.876566,2.04221447 C108.656148,2.1727074 108.448695,2.35539751 108.267175,2.60333409 C108.079171,2.85127067 107.930065,3.14487978 107.819856,3.49721071 C107.709647,3.84954164 107.651301,4.25406975 107.651301,4.71079503 C107.651301,5.15447101 107.703164,5.55899912 107.819856,5.91133005 C107.930065,6.27018563 108.072688,6.57031938 108.247726,6.81825596 C108.43573,7.06619254 108.636699,7.24888265 108.857117,7.37937559 C109.077535,7.50986853 109.297953,7.575115 109.518371,7.575115 C109.73879,7.575115 109.959208,7.50986853 110.179626,7.37937559 C110.400044,7.24888265 110.607496,7.06619254 110.789017,6.81825596 C110.964055,6.57031938 111.106678,6.27018563 111.22337,5.91133005 C111.340062,5.55247447 111.398408,5.15447101 111.398408,4.71079503 C111.398408,3.78429518 111.197439,3.07963331 110.801983,2.58376015 C110.41301,2.08788699 109.991622,1.84647506 109.53782,1.84647506 Z M110.970538,14.3150752 L118.211921,14.3150752 L118.211921,15.8940397 L109.589683,15.8940397 C109.103467,15.8940397 108.701528,15.685251 108.383867,15.261149 C108.072688,14.8370469 107.910616,14.3476984 107.910616,13.7865788 L107.910616,10.1001533 L110.263903,10.1001533 L110.263903,13.6104133 C110.263903,13.819202 110.328732,13.9888429 110.45839,14.1193358 C110.588048,14.2498287 110.756603,14.3150752 110.970538,14.3150752 Z M118.211921,0 L118.211921,11.509477 L115.858633,11.509477 L115.858633,0 L118.211921,0 Z" id="Shape"></path>
                    <path d="M121.192053,6.95483874 L135.099338,6.95483874 L135.099338,8.49894056 L131.152245,8.49894056 C131.528462,8.8881563 131.828161,9.34117791 132.05134,9.86438596 C132.27452,10.387594 132.382922,10.9490856 132.382922,11.5552413 C132.370169,12.206061 132.249014,12.8058361 132.013081,13.3418053 C131.777148,13.8777746 131.464697,14.3371768 131.075726,14.7136313 C130.686756,15.0900859 130.240396,15.3835929 129.730271,15.5877716 C129.220146,15.7919504 128.690892,15.8940397 128.142507,15.8940397 C127.555863,15.8940397 127.007479,15.7855698 126.497354,15.5750104 C125.980852,15.3644511 125.528116,15.0645636 125.139146,14.6753478 C124.750175,14.2988932 124.4441,13.839491 124.220921,13.3099024 C123.997741,12.7803138 123.889339,12.1932999 123.889339,11.5488607 C123.889339,10.9554662 123.997741,10.3939746 124.214544,9.86438596 C124.431347,9.33479732 124.731046,8.88177572 125.107263,8.49255997 L121.192053,8.49255997 L121.192053,6.95483874 L121.192053,6.95483874 Z M133.396795,1.54410181 L129.411443,1.54410181 C129.58361,2.36719741 130.055476,3.01163659 130.833417,3.47741937 C131.611358,3.94320215 132.51683,4.19842559 133.543456,4.24308969 L133.543456,5.83823619 C132.899423,5.83823619 132.287273,5.78081092 131.707006,5.65957979 C131.126739,5.53834865 130.591107,5.378834 130.112865,5.16827466 C129.62187,4.9704765 129.19464,4.74715599 128.843929,4.49193255 C128.486842,4.23670911 128.231779,3.96872449 128.072365,3.6943593 C127.900198,3.96872449 127.638759,4.23670911 127.281671,4.49193255 C126.924583,4.74715599 126.516483,4.97685708 126.044618,5.16827466 C125.566375,5.37245342 125.037121,5.53834865 124.475983,5.65957979 C123.914846,5.78081092 123.328202,5.83823619 122.735181,5.83823619 L122.735181,4.24308969 C123.226177,4.21756735 123.704419,4.1473809 124.157155,4.01976918 C124.616268,3.89215746 125.024368,3.71350105 125.394208,3.49018054 C125.757672,3.26047945 126.070124,2.98611425 126.31881,2.65432378 C126.567496,2.32891389 126.74604,1.9588399 126.848065,1.54410181 L122.913725,1.54410181 L122.913725,0 L133.384042,0 L133.384042,1.54410181 L133.396795,1.54410181 Z M128.142507,8.72864165 C127.900198,8.72864165 127.664265,8.7988281 127.441085,8.93282041 C127.211529,9.0731933 127.007479,9.25823029 126.822558,9.50069256 C126.637638,9.755916 126.490977,10.0558035 126.376199,10.4003552 C126.261421,10.7512874 126.204032,11.1341226 126.204032,11.5616218 C126.191279,12.4421427 126.388952,13.131246 126.790676,13.6225511 C127.192399,14.1138562 127.638759,14.3626991 128.129754,14.3626991 C128.35931,14.3626991 128.588867,14.2988932 128.824799,14.1712815 C129.060732,14.0436698 129.271159,13.8650134 129.449703,13.6225511 C129.634623,13.3800888 129.781284,13.0929625 129.896062,12.7484108 C130.01084,12.4038592 130.068229,12.0082629 130.068229,11.5616218 C130.068229,10.6683398 129.870556,9.97285592 129.468832,9.47517022 C129.067109,8.97748451 128.627126,8.72864165 128.142507,8.72864165 Z" id="Shape"></path>
                    <path d="M142.580821,0.873943916 L142.580821,4.06970898 C142.567862,5.49802031 142.833527,6.73719452 143.364856,7.78070964 C143.902666,8.83074674 144.654303,9.53511945 145.632728,9.89382777 L145.632728,11.563452 C145.075479,11.4917103 144.550629,11.335183 144.051697,11.1003921 C143.559245,10.8590793 143.11863,10.5916785 142.736332,10.2851459 C142.354034,9.97861337 142.036532,9.66555884 141.783826,9.33946036 C141.531121,9.01336189 141.36913,8.71987326 141.284894,8.45899448 C141.200659,8.70682932 141.032189,8.99379598 140.773004,9.32641642 C140.513818,9.65903687 140.189837,9.97861337 139.807538,10.2851459 C139.42524,10.5916785 138.997584,10.8590793 138.524571,11.1003921 C138.051558,11.341705 137.572065,11.4982323 137.086093,11.563452 L137.086093,9.89382777 C138.025639,9.52859748 138.770797,8.83074674 139.308607,7.78723161 C139.846416,6.74371649 140.12504,5.49149834 140.138,4.03057717 L140.138,0.873943916 L142.580821,0.873943916 Z M150,0 L150,15.8940397 L147.647893,15.8940397 L147.647893,6.41109604 L144.595987,6.41109604 L144.595987,4.83277942 L147.647893,4.83277942 L147.647893,0.00652196953 L150,0.00652196953 L150,0 Z" id="Shape"></path>
                </g>
            </g>
        </g>
    </g>
</svg>