<?xml version="1.0" encoding="UTF-8"?>
<svg width="18px" height="18px" viewBox="0 0 18 18" version="1.1" xmlns="http://www.w3.org/2000/svg" xmlns:xlink="http://www.w3.org/1999/xlink">
    <title>F980DDA7-CD12-43F1-B6E4-A336E4015622@1.5x</title>
    <g id="메인화면(체크박스추가)" stroke="none" stroke-width="1" fill="none" fill-rule="evenodd">
        <g id="메인/카카오톡/체크박스추가3-체크" transform="translate(-468.000000, -414.000000)" fill="#333333">
            <path d="M483,414 C484.656854,414 486,415.343146 486,417 L486,429 C486,430.656854 484.656854,432 483,432 L471,432 C469.343146,432 468,430.656854 468,429 L468,417 C468,415.343146 469.343146,414 471,414 L483,414 Z M482.065045,418.17494 C481.609378,417.862874 480.987006,417.979287 480.67494,418.434955 L480.67494,418.434955 L475.922,425.374 L473.250605,422.339249 L473.161873,422.250242 C472.789755,421.920909 472.221908,421.912543 471.839249,422.249395 C471.424701,422.614318 471.384472,423.246204 471.749395,423.660751 L471.749395,423.660751 L475.270563,427.660751 L475.361113,427.751493 C475.803096,428.141692 476.502368,428.067137 476.846228,427.565045 L476.846228,427.565045 L482.32506,419.565045 L482.389509,419.457149 C482.617209,419.015464 482.485662,418.463001 482.065045,418.17494 Z" id="img/checkbox_select"></path>
        </g>
    </g>
</svg>