<?xml version="1.0" encoding="UTF-8"?>
<svg width="50px" height="48px" viewBox="0 0 50 48" version="1.1" xmlns="http://www.w3.org/2000/svg" xmlns:xlink="http://www.w3.org/1999/xlink">
    <!-- Generator: sketchtool 63.1 (101010) - https://sketch.com -->
    <title>DBFC6B84-ABD7-4127-BC1A-68B70B90D490</title>
    <desc>Created with sketchtool.</desc>
    <g id="전자서명요청" stroke="none" stroke-width="1" fill="none" fill-rule="evenodd">
        <g id="main/전자서명요청" transform="translate(-638.000000, -271.000000)">
            <g id="img_request" transform="translate(638.000000, 271.000000)">
                <g id="Authorization_success" transform="translate(0.000000, 5.000000)" fill="#B5B5B5">
                    <path d="M19.5,0 C34.9871052,0 38.3021052,3.84462844 38.9076315,6.13379652 C38.969035,6.36733144 39.0000576,6.60718106 38.9999999,6.8479387 L38.9999999,6.8479387 L38.9999999,19.8590222 C38.983714,27.9708 34.387975,35.446271 26.9715789,39.4245614 L26.9715789,39.4245614 L21.0086842,42.623527 C20.071826,43.125491 18.9281739,43.125491 17.9913158,42.623527 L17.9913158,42.623527 L12.028421,39.4245614 C4.61202496,35.446271 0.0162859108,27.9708 0,19.8590222 L0,19.8590222 L0.00062900933,6.79216772 C0.0168020119,6.06469386 0.368663434,3.88890835 3.75631578,2.26960254 C6.90710525,0.763056027 12.2028947,0 19.5,0 Z M19.5,2.93181818 C3.495,2.93181818 3.01485,6.60988182 3.0004455,6.83056564 L3,19.8386364 C2.9995619,26.8983828 7.01648443,33.4096944 13.5084375,36.8725 L13.5084375,36.8725 L19.5,40.0681818 L25.4915625,36.8431818 C31.9835156,33.3803762 36.0004381,26.8690646 36,19.8093182 L36,19.8093182 L35.9996772,6.83974418 C35.9779312,6.76311818 34.8140625,2.93181818 19.5,2.93181818 Z" id="Shape"></path>
                    <path d="M19,18.5681818 L20,18.5681818 C20.5522847,18.5681818 21,19.0158971 21,19.5681818 L21,26.8374126 L21,27.6643357 L21,28.4912587 C21,28.9479557 20.6297739,29.3181818 20.1730769,29.3181818 L18.8269231,29.3181818 C18.3702261,29.3181818 18,28.9479557 18,28.4912587 L18,27.6643357 L18,26.8374126 L18,19.5681818 C18,19.0158971 18.4477153,18.5681818 19,18.5681818 Z" id="Rectangle"></path>
                    <ellipse id="Oval" cx="19.5" cy="19.0568182" rx="2.5" ry="2.44318182"></ellipse>
                </g>
                <g id="Group-4" transform="translate(25.000000, 0.000000)">
                    <circle id="Oval" fill="#333333" cx="12.5" cy="12.5" r="12.5"></circle>
                    <rect id="Rectangle" fill="#FFFFFF" x="11" y="5" width="3" height="10" rx="1.5"></rect>
                    <circle id="Oval" fill="#FFFFFF" cx="12.5" cy="18.5" r="1.5"></circle>
                </g>
            </g>
        </g>
    </g>
</svg>