<?xml version="1.0" encoding="UTF-8"?>
<svg width="90px" height="56px" viewBox="0 0 90 56" version="1.1" xmlns="http://www.w3.org/2000/svg" xmlns:xlink="http://www.w3.org/1999/xlink">
    <!-- Generator: sketchtool 63.1 (101010) - https://sketch.com -->
    <title>2602EACE-30BA-453E-A4C1-9C57FB3BC8E4</title>
    <desc>Created with sketchtool.</desc>
    <g id="도움말" stroke="none" stroke-width="1" fill="none" fill-rule="evenodd">
        <g id="main/금융인증서/도움말" transform="translate(-545.000000, -208.000000)">
            <g id="Group-3" transform="translate(106.000000, 93.000000)">
                <g id="Group-2" transform="translate(243.000000, 115.500000)">
                    <g id="img_confirm" transform="translate(196.903246, 0.000000)">
                        <path d="M61.0967543,0 L35.0967543,0 C19.9089237,0 7.59675429,12.3121694 7.59675429,27.5 L7.60212936,28.0486973 C7.68090323,32.066575 8.62419159,35.951394 10.3440821,39.4918835 L10.5127543,39.831 L10.3250097,40.2988092 C8.63867351,44.3764212 6.24135117,47.7219598 3.12817282,50.3546398 L-5.68434189e-14,53 L4.09675429,53 L4.73705776,52.9960527 C10.2536191,52.9276233 14.9189297,51.9692386 18.7229063,50.1015009 L19.1327543,49.894 L19.1941137,49.9382469 C23.7989699,53.2082382 29.3134375,55 35.0967543,55 L61.0967543,55 C76.2845849,55 88.5967543,42.6878306 88.5967543,27.5 C88.5967543,12.3121694 76.2845849,0 61.0967543,0 Z M35.0967543,3 L61.0967543,3 C74.6277307,3 85.5967543,13.9690236 85.5967543,27.5 C85.5967543,41.0309764 74.6277307,52 61.0967543,52 L35.0967543,52 C29.6195689,52 24.4201106,50.1995168 20.1708964,46.9301936 L19.3760538,46.3186458 L18.5071659,46.8194445 L18.1243499,47.0340372 C15.4162273,48.5101999 12.1113987,49.4404726 8.20451758,49.8133488 L7.93075429,49.837 L8.18055504,49.5534585 C10.447737,46.912232 12.2419088,43.8127187 13.5608912,40.2635174 L13.7964989,39.6295296 L13.4773581,39.0332069 C11.594994,35.5159617 10.5967543,31.5822006 10.5967543,27.5 C10.5967543,13.9690236 21.5657779,3 35.0967543,3 Z" id="Combined-Shape" fill="#ECECEC" fill-rule="nonzero"></path>
                        <g id="icon/popup-2" transform="translate(33.096754, 15.500000)">
                            <g id="icon/popup">
                                <rect id="Rectangle" fill="#2484E4" opacity="0.699999988" x="0" y="0" width="31" height="24" rx="2"></rect>
                                <rect id="Rectangle" fill="#F9F9F9" x="2.21428571" y="4.36363636" width="26.5714286" height="17.4545455"></rect>
                                <rect id="Rectangle" fill="#EAEAEA" x="25.4642857" y="2.18181818" width="3.32142857" height="1.09090909"></rect>
                                <polygon id="Line-2" fill="#115DA6" fill-rule="nonzero" points="21.2098991 8.45740069 22.7993121 9.97649143 14.8993328 18.0015611 9.80667144 13.7772337 11.2327059 12.1081157 14.7460357 15.0218182"></polygon>
                            </g>
                        </g>
                    </g>
                </g>
            </g>
        </g>
    </g>
</svg>